<?xml version="1.0" encoding="UTF-8"?>
<svg id="_Слой_1" data-name="Слой_1" xmlns="http://www.w3.org/2000/svg" version="1.1" viewBox="0 0 800 800">
  <!-- Generator: Adobe Illustrator 29.1.0, SVG Export Plug-In . SVG Version: 2.1.0 Build 142)  -->
  <defs>
    <style>
      .st0 {
        fill: #ffe62e;
      }
    </style>
  </defs>
  <path class="st0" d="M621.3,428.7c-16.2-13.7-45-11.3-65-10,22.5-11.3,57.5-33.8,81.2-13.7-17.5-23.7-56.2-16.2-80-11.2,20-15,51.2-41.2,77.5-26.3-21.3-21.3-58.8-7.5-81.2,2.5,17.5-17.5,43.8-48.7,72.5-38.8-23.8-17.5-58.8,1.3-80,15,13.7-20,36.3-55,66.2-48.7-26.2-13.8-57.5,11.2-76.2,26.3,11.3-22.5,26.2-60,57.5-58.7-28.7-8.8-55,20-71.3,38.8,7.5-23.7,16.2-63.8,47.5-67.5-28.7-5-51.2,27.5-63.7,48.7,3.7-25,6.2-66.3,36.3-73.7-30,0-46.3,36.2-56.2,58.8,0-25-3.7-66.2,25-78.8-28.7,5-40,42.5-46.3,66.3-3.7-25-13.7-65,11.3-81.2-28.7,8.7-32.5,48.7-35,72.5-7.5-23.7-23.8-61.2-1.2-82.5-26.2,13.8-25,52.5-23.8,77.5-11.3-22.5-33.8-57.5-13.7-81.2-23.7,17.5-16.2,56.2-11.2,80-15-20-41.2-51.3-26.3-77.5-21.3,21.2-7.5,57.5,2.5,81.3-17.5-17.5-48.7-43.8-38.8-72.5-17.5,23.7,1.3,58.7,15,80-20-13.8-55-36.2-48.7-66.3-13.8,26.2,11.2,57.5,27.5,76.2-22.5-11.2-60-26.3-58.8-57.5-8.8,27.5,20,55,38.8,71.3-23.7-7.5-63.8-16.2-67.5-47.5-5,28.7,27.5,51.3,48.7,63.8-25-3.7-66.3-6.2-73.7-36.2,0,30,36.2,46.3,58.8,56.2-25,0-66.2,3.7-78.8-25,5,28.7,42.5,40,66.3,46.3-25,3.7-65,13.8-81.2-11.2,8.7,28.7,48.7,32.5,72.5,35-23.7,7.5-61.2,23.7-82.5,1.3,13.8,26.3,52.5,25,77.5,23.7-22.5,11.2-57.5,33.7-81.2,13.8,17.5,23.8,56.2,16.2,80,11.3-20,15-51.3,41.2-77.5,26.2,21.2,21.3,57.5,7.5,81.3-2.5-17.5,17.5-43.8,48.8-72.5,38.7,23.7,17.5,58.7-1.2,80-15-13.8,20-36.2,55-66.3,48.8,26.2,13.7,57.5-11.3,76.2-27.5-11.2,22.5-26.3,60-57.5,58.8,28.7,8.8,55-20,71.3-38.7-7.5,23.8-16.2,63.7-47.5,67.5,28.7,5,51.3-28.7,63.8-48.8-3.7,25-6.2,66.2-36.2,73.8,30,0,46.3-36.3,56.2-58.8,0,25,3.7,66.2-25,78.7,28.7-5,40-42.5,46.3-66.2,3.7,25,13.8,65-11.2,81.2,28.7-8.8,32.5-48.8,35-72.5,7.5,23.8,23.7,61.3,1.3,82.5,26.3-13.7,25-52.5,23.7-77.5,11.2,22.5,33.7,57.5,13.8,81.2,23.8-17.5,16.2-56.2,11.3-80,15,20,41.2,51.2,26.2,77.5,21.3-21.3,7.5-57.5-2.5-81.2,17.5,17.5,48.8,43.8,38.7,72.5,17.5-23.8-1.2-58.8-15-80,20,13.7,55,36.3,48.8,66.2,13.7-26.2-11.3-57.5-26.2-76.2,22.5,11.3,60,26.2,58.8,57.5,8.8-28.7-20-55-38.7-71.3,23.8,7.5,63.7,16.2,67.5,47.5,5-30-28.7-51.2-48.8-63.7,25,3.7,65,6.2,73.8,36.3,0-30-36.3-46.3-58.8-56.2,25,0,66.2-3.7,78.7,25-5-30-42.5-40-66.2-46.3,25-3.7,65-13.7,81.2,11.3-8.8-27.5-48.8-33.8-72.5-35,23.8-8.8,61.3-23.8,82.5-1.2-3.7-5-8.8-8.8-13.7-12.5M400,550c-56.2,0-108.8-32.5-133.8-82.5-26.3-50-20-112.5,13.8-158.8,33.8-45,91.3-67.5,147.5-57.5,55,10,100,51.3,116.2,103.8,28.7,96.2-45,195-143.8,195"/>
  <path class="st0" d="M310,312.5c-22.5,22.5-35,53.7-35,87.5s7.5,48.8,20,68.8c10-46.3,31.2-88.8,58.7-123.7-12.5-12.5-27.5-23.7-43.8-32.5"/>
  <path class="st0" d="M391.2,305c-10-8.8-21.3-16.2-32.5-23.7-5,1.3-10,3.7-15,6.2,12.5,7.5,25,17.5,37.5,26.3,2.5-1.3,6.2-5,10-8.8"/>
  <path class="st0" d="M372.5,323.7c-12.5-11.2-26.3-20-41.2-28.7-3.7,2.5-7.5,6.2-11.2,8.8,15,8.8,30,18.8,42.5,31.2,2.5-3.7,6.2-7.5,10-11.2"/>
  <path class="st0" d="M363.8,352.5c-28.7,37.5-48.7,81.2-58.7,128.7,6.2,6.2,12.5,12.5,20,18.8,5-50,22.5-96.3,50-135-3.7-5-7.5-8.8-11.2-12.5"/>
  <path class="st0" d="M425,365c27.5,38.7,46.3,85,50,135,7.5-5,13.7-11.3,20-18.8-8.8-47.5-30-91.2-58.8-128.7-3.7,3.7-7.5,7.5-11.3,12.5"/>
  <path class="st0" d="M390,365c3.7,5,7.5,8.8,10,13.8,3.7-5,6.2-8.8,10-13.8-3.7-3.7-6.2-8.8-10-12.5-3.7,3.7-7.5,7.5-10,12.5"/>
  <path class="st0" d="M426.2,277.5c-8.8-1.3-17.5-2.5-26.3-2.5s-17.5,1.3-26.3,2.5c8.8,6.2,18.8,12.5,26.3,20,8.7-7.5,17.5-13.8,26.3-20"/>
  <path class="st0" d="M393.8,390l-11.2-15c-26.3,38.7-43.8,83.8-47.5,132.5l22.5,11.3v-3.7c1.3-46.3,13.8-88.7,36.2-125"/>
  <path class="st0" d="M400,333.8l11.3-11.2c-3.7-3.7-7.5-7.5-11.3-10-3.7,3.7-7.5,6.2-11.2,10l11.2,11.2"/>
  <path class="st0" d="M418.8,355c3.7-3.7,7.5-8.8,11.3-12.5-3.7-3.7-6.2-7.5-10-11.2l-11.3,11.2c2.5,5,6.2,8.8,10,12.5"/>
  <path class="st0" d="M381.2,332.5c-3.7,3.7-6.2,7.5-10,11.2,3.7,3.7,7.5,7.5,11.2,12.5,3.7-3.7,6.2-8.8,10-12.5-3.7-5-7.5-8.8-11.2-11.2"/>
  <path class="st0" d="M400,401.2c-18.8,33.8-30,72.5-30,112.5v7.5c10,2.5,20,3.7,30,3.7s20-1.2,30-3.7v-7.5c0-41.2-11.3-80-30-112.5"/>
  <path class="st0" d="M407.5,390c22.5,36.3,35,78.7,35,125v3.7c7.5-2.5,16.2-6.2,22.5-11.3-3.7-48.8-20-93.8-47.5-132.5-3.7,3.7-7.5,8.8-10,15"/>
  <path class="st0" d="M420,315c11.3-10,23.8-18.8,37.5-26.3-5-2.5-10-5-15-6.2-11.3,7.5-22.5,15-32.5,23.7,2.5,2.5,6.2,6.2,10,8.8"/>
  <path class="st0" d="M505,468.8c12.5-20,20-43.8,20-68.8s-13.7-65-35-87.5c-16.2,8.8-31.2,18.8-43.8,31.2,27.5,36.2,47.5,78.7,58.8,125"/>
  <path class="st0" d="M437.5,335c12.5-11.2,27.5-22.5,42.5-31.2-3.7-3.7-7.5-6.2-11.3-8.8-15,8.8-27.5,17.5-41.2,28.7,3.7,3.7,7.5,7.5,10,11.2"/>
</svg>